<svg xmlns="http://www.w3.org/2000/svg" viewBox="0 0 173.91 201"><defs><style>.cls-1{fill:#4d3d75;}.cls-2{fill:#604c87;}.cls-3{fill:#795ca0;}.cls-4{fill:#b3b3b3;}.cls-5{fill:#8e6eaf;}.cls-6{fill:#83ce5b;}.cls-7{fill:#faba2f;}.cls-8{fill:#169c4d;}.cls-9{fill:#f99932;}.cls-10{fill:#d87319;}.cls-11{fill:#0e784a;}.cls-12{fill:#ea852a;}.cls-13{fill:#60b74b;}.cls-14,.cls-15{fill:none;stroke:#333;stroke-miterlimit:10;}.cls-15{stroke-width:0.5px;}</style></defs><title>Asset 1</title><g id="Layer_2" data-name="Layer 2"><g id="Layer_2-2" data-name="Layer 2"><path class="cls-1" d="M169.45,115.57a31.49,31.49,0,0,1-.57,12.19c.11-.33.23-.67.35-1a.57.57,0,0,1,0,.15,102.39,102.39,0,0,1-9.3,19.88c5.26-25.05,1.91-62.16-27.16-88.82a.63.63,0,0,0-.13-.13c-.28-.29-.55-.57-.83-.83,1.43,1.23,2.82,2.49,4.2,3.77.36.32.72.67,1.08,1,13.83,13.43,27.34,32.13,31.49,49l.28,1.19.16.79C169.17,113.7,169.32,114.64,169.45,115.57Z"/><path class="cls-2" d="M132.74,57.94c29.06,26.66,32.42,63.77,27.16,88.82h0a123.07,123.07,0,0,1-17.38,22.41C154.71,147.64,162.12,88.22,132.74,57.94Z"/><path class="cls-3" d="M132.74,57.94c29.38,30.27,22,89.7,9.78,111.25A117.7,117.7,0,0,1,111.85,192C138,165.1,159,85.14,129.54,55.14c1.05.87,2.08,1.76,3.06,2.66A.63.63,0,0,1,132.74,57.94Z"/><path class="cls-4" d="M121,48.71c.28.16.55.32.8.49A8.65,8.65,0,0,0,121,48.71Z"/><path class="cls-5" d="M125.33,100c11.9-12.19,16.39-36.18-4.72-51.49l.05,0a.13.13,0,0,1,.07.05,96.55,96.55,0,0,1,8.81,6.6c29.45,30,8.5,110-17.69,136.86-18.89,9.53-38.72,11.86-54.12,2.8-26-15.35-46.57-75-52.22-97.78a85,85,0,0,0,24.29,17.6c.4.2.81.39,1.23.57a82.4,82.4,0,0,0,39,7.74c21.75-.52,43.05-10.65,54.12-21.75C124.53,100.79,124.95,100.38,125.33,100Z"/><path class="cls-6" d="M123.55,101.54C73.74,144.22,14.94,67.28,2.08,44.56,5,29.08,12.34,14.45,27.54,5.8,53-8.68,85.22,10.23,102.37,18.33L101.6,18l-.49-.21A117.6,117.6,0,0,0,72.7,8.57c-.59-.11-1.19-.2-1.79-.29A45,45,0,0,0,55,8.28a4.52,4.52,0,0,0-.64.13c-4.9,1.07-8.65,3.25-10.9,6.52a5.27,5.27,0,0,0-.29.45,20.34,20.34,0,0,0-3.33,7.36l-.08.33q-.18.68-.32,1.36c-1,3.57-1.08,8.13-.27,13.28a77,77,0,0,0,7.41,22.55s0,0,0,.05a114.5,114.5,0,0,0,19,28c.79.88,1.61,1.75,2.48,2.58q2.18,2.24,4.54,4.3c.29.28.6.55.91.8a65.05,65.05,0,0,0,9.66,7.22c25.61,15.46,42.13-3.89,42.15-3.24l-1.07,1Z"/><path class="cls-7" d="M83.19,103.19c-35.94-27.08-18.4-78.35,1.2-91.73a146.67,146.67,0,0,1,16.72,6.3l.49.21,1.21.56c28,14,58.48,37.55,67.17,64.48,6.78,21,1.85,35.92-.76,43.72a32.54,32.54,0,0,0,.23-11.17c-.12-.93-.28-1.88-.47-2.82l-.16-.79-.28-1.19c-3.73-15.63-15.62-33.88-31.49-49-.36-.35-.72-.69-1.08-1-1.6-1.53-3.18-3-4.77-4.34a52.74,52.74,0,0,0-4.32-3.72,34.87,34.87,0,0,0-6.22-4.2l-.05,0,0,0c-8.25-4.85-22.69-9.47-38.41,1.67C71.11,58.07,60.35,84.67,83.19,103.19Z"/><path class="cls-8" d="M.57,66.63c13.12,21.61,72.51,77.5,122.19,35.59C73.17,144.64,16.19,103.56,2.08,82A125.17,125.17,0,0,1,.57,66.63Z"/><path class="cls-9" d="M84.39,11.47c-19.6,13.38-37.14,64.65-1.2,91.73-.65-.48-1.31-1-1.95-1.45-35-27-32.69-75.42-15-93.92V7.76q2.28.16,4.72.52c.6.09,1.2.19,1.79.29A96.49,96.49,0,0,1,84.39,11.47Z"/><path class="cls-10" d="M53.26,8.72c-13.26,24.2-9,65,28,93,.64.49,1.29,1,1.95,1.45A82.43,82.43,0,0,1,73.53,96c-.31-.25-.61-.52-.91-.8-.72-.68-1.45-1.37-2.2-2.11s-1.53-1.4-2.35-2.2-1.69-1.71-2.48-2.58a123.74,123.74,0,0,1-19-28s0,0,0-.05A83.67,83.67,0,0,1,39.2,37.72a38.13,38.13,0,0,1,.27-13.28c0-.12.07-.25.11-.37.07-.33.13-.67.21-1l.08-.33a25.42,25.42,0,0,1,3.33-7.36A18.21,18.21,0,0,1,53.26,8.72Z"/><path class="cls-11" d="M67,123a88.16,88.16,0,0,1-36-7.75c-.41-.19-.83-.37-1.23-.57A90.76,90.76,0,0,1,5.5,97,110.24,110.24,0,0,1,2.08,82c14.11,21.61,71.09,62.69,120.68,20.27.27-.21.52-.44.79-.68l.72-.63,1.07-1c-.39.43-.8.84-1.21,1.24-6.49,6.32-23.58,18.75-48.37,21.32-1.45.15-3.4.33-5.76.43C69,123,68,123,67,123Z"/><path class="cls-12" d="M66.2,7.81c-17.64,18.51-19.91,66.88,15,93.92-37-28-41.24-68.82-28-93,.37-.12.75-.21,1.13-.31L55,8.28A42.81,42.81,0,0,1,66.2,7.76Z"/><path class="cls-13" d="M2.08,44.56c12.86,22.72,71.66,99.65,121.47,57-.27.24-.52.47-.79.68C73.09,144.12,13.7,88.24.57,66.63A100.74,100.74,0,0,1,2.08,44.56Z"/><path class="cls-14" d="M73.53,96a65.05,65.05,0,0,0,9.66,7.22c25.61,15.46,42.13-3.89,42.15-3.24"/><path class="cls-14" d="M68.08,90.87c.81.8,1.59,1.53,2.35,2.2s1.48,1.43,2.2,2.11"/><path class="cls-14" d="M46.64,60.31a123.74,123.74,0,0,0,19,28"/><path class="cls-14" d="M39.79,23.07q-.18.68-.32,1.36a38.13,38.13,0,0,0-.27,13.28,77,77,0,0,0,7.41,22.55"/><path class="cls-14" d="M70.91,8.28q-2.44-.36-4.72-.52A42.81,42.81,0,0,0,55,8.28a4.52,4.52,0,0,0-.64.13c-4.9,1.07-8.65,3.25-10.9,6.52a5.27,5.27,0,0,0-.29.45,25.42,25.42,0,0,0-3.33,7.36"/><path class="cls-14" d="M101.11,17.77A117.6,117.6,0,0,0,72.7,8.57"/><path class="cls-14" d="M102.81,18.54,101.6,18"/><path class="cls-14" d="M29.79,114.62A90.76,90.76,0,0,1,5.5,97,110.24,110.24,0,0,1,2.08,82,125.17,125.17,0,0,1,.57,66.63,100.74,100.74,0,0,1,2.08,44.56C5,29.08,12.34,14.45,27.54,5.8,53-8.68,85.22,10.23,102.37,18.33"/><path class="cls-14" d="M124.12,101.19c-6.49,6.32-23.58,18.75-48.37,21.32-1.45.15-3.4.33-5.76.43a82.4,82.4,0,0,1-39-7.74"/><path class="cls-15" d="M122.76,102.22C73.17,144.64,16.19,103.56,2.08,82"/><path class="cls-15" d="M124.27,100.91l-.72.63c-.27.24-.52.47-.79.68C73.09,144.12,13.7,88.24.57,66.63"/><path class="cls-15" d="M125.33,100l-1.07,1-.72.63C73.74,144.22,14.94,67.28,2.08,44.56"/><path class="cls-14" d="M169,112.75c.19,1,.33,1.89.47,2.82a31.49,31.49,0,0,1-.57,12.19c.11-.33.23-.67.35-1,2.61-7.79,7.54-22.71.76-43.72-8.69-26.93-39.16-50.43-67.17-64.48l-.19-.09-.25-.12L101.6,18l-.49-.21a146.67,146.67,0,0,0-16.72-6.3A96.49,96.49,0,0,0,72.7,8.57c-.59-.11-1.19-.2-1.79-.29A45,45,0,0,0,55,8.28l-.64.13c-.39.09-.76.19-1.13.31A18.21,18.21,0,0,0,43.2,15.38a20.34,20.34,0,0,0-3.33,7.36l-.08.33c-.08.32-.15.65-.21,1,0,.12-.08.25-.11.37-1,3.57-1.08,8.13-.27,13.28a83.67,83.67,0,0,0,7.41,22.55s0,0,0,.05a114.5,114.5,0,0,0,19,28c.79.88,1.61,1.75,2.48,2.58q2.18,2.24,4.54,4.3c.29.28.6.55.91.8a82.43,82.43,0,0,0,9.66,7.22c-22.84-18.52-12.07-45.12-1-53.08,15.72-11.14,30.17-6.52,38.41-1.67"/><path class="cls-14" d="M137.06,61.77c15.87,15.12,27.76,33.38,31.49,49l.28,1.19"/><path class="cls-14" d="M125.46,51.81c.11.11.21.19.32.28,1.21.93,2.4,1.88,3.57,2.85.81.67,1.63,1.35,2.43,2,1.43,1.23,2.82,2.49,4.2,3.77"/><path class="cls-14" d="M121.91,49.25c1.21.79,2.27,1.55,3.12,2.23"/><path class="cls-14" d="M121,48.71c.28.16.55.32.8.49"/><path class="cls-15" d="M81.24,101.74c-37-28-41.24-68.82-28-93"/><path class="cls-15" d="M83.19,103.19c-.65-.48-1.31-1-1.95-1.45-35-27-32.69-75.42-15-93.92"/><path class="cls-15" d="M83.19,103.19c-35.94-27.08-18.4-78.35,1.2-91.73a0,0,0,0,1,0,0"/><path class="cls-14" d="M129,54.53c-1.17-1-2.35-1.87-3.49-2.72l-.44-.33c-1.4-1-2.77-2-4.1-2.82"/><path class="cls-14" d="M159.9,146.76a102.39,102.39,0,0,0,9.3-19.88.57.57,0,0,0,0-.15,32.54,32.54,0,0,0,.23-11.17c-.12-.93-.28-1.88-.47-2.82l-.16-.79-.28-1.19c-4.14-16.88-17.66-35.58-31.49-49-.36-.35-.72-.69-1.08-1-1.6-1.53-3.18-3-4.77-4.34-.73-.63-1.47-1.24-2.2-1.83"/><path class="cls-14" d="M120.61,48.47c21.11,15.31,16.62,39.29,4.72,51.49-.39.43-.8.84-1.21,1.24C113,112.29,91.74,122.42,70,122.94c-1,0-2,0-2.94,0a88.16,88.16,0,0,1-36-7.75c-.41-.19-.83-.37-1.23-.57A85,85,0,0,1,5.5,97c5.65,22.8,26.17,82.43,52.22,97.78,15.4,9.06,35.23,6.73,54.12-2.8a117.7,117.7,0,0,0,30.67-22.81,123.07,123.07,0,0,0,17.38-22.41"/><line class="cls-14" x1="159.9" y1="146.76" x2="159.9" y2="146.78"/><path class="cls-15" d="M132.74,57.94c29.06,26.66,32.42,63.77,27.16,88.82"/><path class="cls-15" d="M120.73,48.55a96.55,96.55,0,0,1,8.81,6.6c1.05.87,2.08,1.76,3.06,2.66"/><path class="cls-15" d="M121,48.71a8.65,8.65,0,0,1,.8.49.12.12,0,0,1,.09.05,50.75,50.75,0,0,1,5,3.44,52.74,52.74,0,0,1,4.32,3.72c.19.19.39.37.57.57s.55.53.83.83a.63.63,0,0,1,.13.13c29.38,30.27,22,89.7,9.78,111.25"/><path class="cls-14" d="M120.92,48.65a.21.21,0,0,1,.09.05"/><path class="cls-15" d="M120.67,48.49a.13.13,0,0,1,.07.05.85.85,0,0,1,.19.11"/><path class="cls-15" d="M120.57,48.44l0,0,.05,0a34.87,34.87,0,0,1,6.22,4.2c.71.57,1.4,1.2,2.07,1.84,0,0,0,0,.05.05l.35.36.19.2c29.45,30,8.5,110-17.69,136.86"/></g></g></svg>